<svg width="210" height="210" viewBox="0 0 210 210" fill="none" xmlns="http://www.w3.org/2000/svg">
<g filter="url(#filter0_d_1109_190)">
<rect x="1" width="208" height="208" rx="38.5185" fill="#7B78EA"/>
<path fill-rule="evenodd" clip-rule="evenodd" d="M92.9623 83.0926V124.296C92.9406 126.227 92.6477 127.843 92.0836 129.145C91.5413 130.446 90.7385 131.434 89.6755 132.106C88.6124 132.757 87.3107 133.082 85.7703 133.082C84.295 133.082 83.0258 132.779 81.9627 132.171C80.8997 131.564 80.0644 130.663 79.4569 129.47C78.8711 128.255 78.5457 126.791 78.4806 125.077H62.4369C62.4152 129.85 63.4023 133.766 65.3983 136.825C67.416 139.884 70.117 142.14 73.5015 143.594C76.9077 145.048 80.6936 145.774 84.8591 145.774C89.567 145.774 93.7108 144.885 97.2905 143.106C100.892 141.327 103.712 138.832 105.752 135.621C107.791 132.388 108.822 128.613 108.843 124.296V93.5244L92.9623 83.0926ZM108.843 90.1725V78.2148H92.9623V79.7406L108.843 90.1725Z" fill="white"/>
<path fill-rule="evenodd" clip-rule="evenodd" d="M137.587 62.6149H91.4404V75.6972H111.682V129.263H127.563V75.6972H147.773V75.5965L137.587 62.6149Z" fill="white"/>
</g>
<defs>
<filter id="filter0_d_1109_190" x="0.22963" y="0" width="209.541" height="209.541" filterUnits="userSpaceOnUse" color-interpolation-filters="sRGB">
<feFlood flood-opacity="0" result="BackgroundImageFix"/>
<feColorMatrix in="SourceAlpha" type="matrix" values="0 0 0 0 0 0 0 0 0 0 0 0 0 0 0 0 0 0 127 0" result="hardAlpha"/>
<feOffset dy="0.77037"/>
<feGaussianBlur stdDeviation="0.385185"/>
<feComposite in2="hardAlpha" operator="out"/>
<feColorMatrix type="matrix" values="0 0 0 0 0 0 0 0 0 0 0 0 0 0 0 0 0 0 0.25 0"/>
<feBlend mode="normal" in2="BackgroundImageFix" result="effect1_dropShadow_1109_190"/>
<feBlend mode="normal" in="SourceGraphic" in2="effect1_dropShadow_1109_190" result="shape"/>
</filter>
</defs>
</svg>
